ETBook-RomanLF.ufo
<glyph name="zero" format="2">
  <advance width="489"/>
  <unicode hex="0030"/>
  <outline>
    <contour>
      <point x="456" y="311" type="curve" smooth="yes"/>
      <point x="456" y="491"/>
      <point x="365" y="640"/>
      <point x="245" y="640" type="curve" smooth="yes"/>
      <point x="125" y="640"/>
      <point x="34" y="491"/>
      <point x="34" y="311" type="curve" smooth="yes"/>
      <point x="34" y="131"/>
      <point x="125" y="-18"/>
      <point x="245" y="-18" type="curve" smooth="yes"/>
      <point x="365" y="-18"/>
      <point x="456" y="131"/>
    </contour>
    <contour>
      <point x="369" y="311" type="curve" smooth="yes"/>
      <point x="369" y="242"/>
      <point x="362" y="175"/>
      <point x="350" y="122" type="curve" smooth="yes"/>
      <point x="338" y="67"/>
      <point x="300" y="18"/>
      <point x="245" y="18" type="curve" smooth="yes"/>
      <point x="195" y="18"/>
      <point x="155" y="52"/>
      <point x="139" y="122" type="curve" smooth="yes"/>
      <point x="127" y="173"/>
      <point x="122" y="241"/>
      <point x="122" y="311" type="curve" smooth="yes"/>
      <point x="122" y="380"/>
      <point x="127" y="450"/>
      <point x="139" y="500" type="curve" smooth="yes"/>
      <point x="152" y="553"/>
      <point x="183" y="604"/>
      <point x="245" y="604" type="curve" smooth="yes"/>
      <point x="295" y="604"/>
      <point x="335" y="570"/>
      <point x="350" y="500" type="curve" smooth="yes"/>
      <point x="362" y="446"/>
      <point x="369" y="380"/>
    </contour>
  </outline>
</glyph>
<glyph name="one" format="2">
  <advance width="489"/>
  <unicode hex="0031"/>
  <outline>
    <contour>
      <point x="386" y="18" type="curve"/>
      <point x="384" y="30"/>
      <point x="379" y="38"/>
      <point x="369" y="38" type="curve"/>
      <point x="360" y="37"/>
      <point x="343" y="38"/>
      <point x="329" y="38" type="curve" smooth="yes"/>
      <point x="298" y="39"/>
      <point x="295" y="52"/>
      <point x="295" y="75" type="curve" smooth="yes"/>
      <point x="295" y="87" type="line"/>
      <point x="294" y="620" type="line"/>
      <point x="293" y="629"/>
      <point x="284" y="640"/>
      <point x="273" y="640" type="curve" smooth="yes"/>
      <point x="261" y="640" type="line"/>
      <point x="252" y="638"/>
      <point x="242" y="629"/>
      <point x="239" y="624" type="curve"/>
      <point x="230" y="613"/>
      <point x="221" y="603"/>
      <point x="192" y="577" type="curve" smooth="yes"/>
      <point x="153" y="540"/>
      <point x="125" y="518"/>
      <point x="91" y="494" type="curve" smooth="yes"/>
      <point x="88" y="492"/>
      <point x="87" y="487"/>
      <point x="87" y="482" type="curve"/>
      <point x="92" y="473" type="line"/>
      <point x="97" y="468"/>
      <point x="104" y="467"/>
      <point x="108" y="469" type="curve" smooth="yes"/>
      <point x="137" y="483"/>
      <point x="169" y="501"/>
      <point x="196" y="521" type="curve" smooth="yes"/>
      <point x="203" y="526"/>
      <point x="214" y="517"/>
      <point x="216" y="506" type="curve"/>
      <point x="215" y="83" type="line"/>
      <point x="215" y="59"/>
      <point x="214" y="40"/>
      <point x="185" y="39" type="curve"/>
      <point x="176" y="35"/>
      <point x="163" y="38"/>
      <point x="148" y="38" type="curve" smooth="yes"/>
      <point x="136" y="38"/>
      <point x="129" y="31"/>
      <point x="124" y="21" type="curve"/>
      <point x="123" y="16"/>
      <point x="124" y="9"/>
      <point x="125" y="3" type="curve"/>
      <point x="128" y="-3"/>
      <point x="137" y="-4"/>
      <point x="143" y="-3" type="curve"/>
      <point x="206" y="-1"/>
      <point x="307" y="0"/>
      <point x="367" y="-4" type="curve" smooth="yes"/>
      <point x="389" y="-6"/>
      <point x="386" y="14"/>
    </contour>
  </outline>
</glyph>
<glyph name="question" format="2">
  <advance width="362"/>
  <unicode hex="003F"/>
  <outline>
    <contour>
      <point x="323" y="477" type="curve" smooth="yes"/>
      <point x="323" y="591"/>
      <point x="247" y="670"/>
      <point x="138" y="670" type="curve" smooth="yes"/>
      <point x="82" y="670"/>
      <point x="42" y="653"/>
      <point x="42" y="615" type="curve" smooth="yes"/>
      <point x="42" y="585"/>
      <point x="67" y="570"/>
      <point x="107" y="570" type="curve" smooth="yes"/>
      <point x="133" y="570"/>
      <point x="156" y="577"/>
      <point x="185" y="577" type="curve" smooth="yes"/>
      <point x="249" y="577"/>
      <point x="285" y="546"/>
      <point x="285" y="493" type="curve" smooth="yes"/>
      <point x="285" y="440"/>
      <point x="261" y="413"/>
      <point x="172" y="380" type="curve" smooth="yes"/>
      <point x="114" y="358"/>
      <point x="91" y="333"/>
      <point x="91" y="284" type="curve" smooth="yes"/>
      <point x="91" y="250"/>
      <point x="107" y="216"/>
      <point x="144" y="172" type="curve" smooth="yes"/>
      <point x="149" y="166"/>
      <point x="166" y="161"/>
      <point x="174" y="164" type="curve" smooth="yes"/>
      <point x="177" y="165"/>
      <point x="182" y="171"/>
      <point x="180" y="174" type="curve"/>
      <point x="146" y="214"/>
      <point x="137" y="231"/>
      <point x="137" y="251" type="curve" smooth="yes"/>
      <point x="137" y="270"/>
      <point x="147" y="282"/>
      <point x="179" y="293" type="curve" smooth="yes"/>
      <point x="217" y="307"/>
      <point x="228" y="313"/>
      <point x="251" y="329" type="curve" smooth="yes"/>
      <point x="298" y="361"/>
      <point x="323" y="411"/>
    </contour>
    <contour>
      <point x="214" y="38" type="curve" smooth="yes"/>
      <point x="214" y="71"/>
      <point x="189" y="93"/>
      <point x="155" y="93" type="curve" smooth="yes"/>
      <point x="122" y="93"/>
      <point x="96" y="71"/>
      <point x="96" y="38" type="curve" smooth="yes"/>
      <point x="96" y="6"/>
      <point x="122" y="-17"/>
      <point x="155" y="-17" type="curve" smooth="yes"/>
      <point x="189" y="-17"/>
      <point x="214" y="6"/>
    </contour>
  </outline>
</glyph>
<glyph name="D" format="2">
  <advance width="773"/>
  <unicode hex="0044"/>
  <outline>
    <contour>
      <point x="721" y="346" type="curve" smooth="yes"/>
      <point x="721" y="446"/>
      <point x="679" y="531"/>
      <point x="600" y="588" type="curve" smooth="yes"/>
      <point x="529" y="639"/>
      <point x="452" y="659"/>
      <point x="321" y="659" type="curve" smooth="yes"/>
      <point x="222" y="659"/>
      <point x="126" y="655"/>
      <point x="27" y="651" type="curve"/>
      <point x="20" y="649" type="line"/>
      <point x="12" y="648"/>
      <point x="7" y="618"/>
      <point x="20" y="618" type="curve" smooth="yes"/>
      <point x="29" y="618" type="line" smooth="yes"/>
      <point x="114" y="618"/>
      <point x="115" y="599"/>
      <point x="115" y="515" type="curve" smooth="yes"/>
      <point x="115" y="134" type="line" smooth="yes"/>
      <point x="115" y="90"/>
      <point x="120" y="41"/>
      <point x="61" y="36" type="curve" smooth="yes"/>
      <point x="48" y="35"/>
      <point x="37" y="36"/>
      <point x="24" y="34" type="curve"/>
      <point x="11" y="30"/>
      <point x="12" y="14"/>
      <point x="16" y="5" type="curve"/>
      <point x="19" y="-4"/>
      <point x="31" y="-4"/>
      <point x="38" y="-4" type="curve" smooth="yes"/>
      <point x="278" y="-3" type="line" smooth="yes"/>
      <point x="353" y="-3"/>
      <point x="402" y="-3"/>
      <point x="475" y="18" type="curve" smooth="yes"/>
      <point x="620" y="60"/>
      <point x="721" y="196"/>
    </contour>
    <contour>
      <point x="613" y="330" type="curve" smooth="yes"/>
      <point x="613" y="117"/>
      <point x="478" y="30"/>
      <point x="290" y="30" type="curve" smooth="yes"/>
      <point x="223" y="30"/>
      <point x="212" y="55"/>
      <point x="212" y="102" type="curve" smooth="yes"/>
      <point x="212" y="603" type="line" smooth="yes"/>
      <point x="212" y="617"/>
      <point x="223" y="623"/>
      <point x="234" y="624" type="curve" smooth="yes"/>
      <point x="278" y="626"/>
      <point x="305" y="626"/>
      <point x="349" y="622" type="curve" smooth="yes"/>
      <point x="428" y="614"/>
      <point x="466" y="600"/>
      <point x="510" y="566" type="curve" smooth="yes"/>
      <point x="574" y="517"/>
      <point x="613" y="429"/>
    </contour>
  </outline>
</glyph>
<glyph name="b" format="2">
  <advance width="491"/>
  <unicode hex="0062"/>
  <outline>
    <contour>
      <point x="455" y="226" type="curve" smooth="yes"/>
      <point x="455" y="335"/>
      <point x="385" y="426"/>
      <point x="295" y="426" type="curve" smooth="yes"/>
      <point x="252" y="426"/>
      <point x="200" y="386"/>
      <point x="166" y="362" type="curve" smooth="yes"/>
      <point x="159" y="357"/>
      <point x="157" y="365"/>
      <point x="156" y="373" type="curve"/>
      <point x="155" y="458"/>
      <point x="154" y="626"/>
      <point x="156" y="707" type="curve" smooth="yes"/>
      <point x="157" y="724"/>
      <point x="153" y="729"/>
      <point x="137" y="724" type="curve" smooth="yes"/>
      <point x="15" y="683" type="line" smooth="yes"/>
      <point x="6" y="680"/>
      <point x="6" y="659"/>
      <point x="15" y="656" type="curve"/>
      <point x="29" y="653"/>
      <point x="44" y="651"/>
      <point x="58" y="648" type="curve" smooth="yes"/>
      <point x="70" y="646"/>
      <point x="79" y="643"/>
      <point x="80" y="629" type="curve"/>
      <point x="80" y="622"/>
      <point x="81" y="610"/>
      <point x="81" y="593" type="curve" smooth="yes"/>
      <point x="82" y="464"/>
      <point x="83" y="220"/>
      <point x="81" y="22" type="curve"/>
      <point x="82" y="13"/>
      <point x="88" y="5"/>
      <point x="91" y="4" type="curve"/>
      <point x="141" y="-7"/>
      <point x="199" y="-15"/>
      <point x="228" y="-15" type="curve" smooth="yes"/>
      <point x="362" y="-15"/>
      <point x="455" y="89"/>
    </contour>
    <contour>
      <point x="380" y="197" type="curve" smooth="yes"/>
      <point x="380" y="96"/>
      <point x="329" y="27"/>
      <point x="254" y="27" type="curve" smooth="yes"/>
      <point x="207" y="27"/>
      <point x="173" y="56"/>
      <point x="163" y="96" type="curve" smooth="yes"/>
      <point x="157" y="121"/>
      <point x="155" y="170"/>
      <point x="155" y="217" type="curve" smooth="yes"/>
      <point x="155" y="263"/>
      <point x="156" y="307"/>
      <point x="156" y="319" type="curve"/>
      <point x="200" y="351"/>
      <point x="228" y="369"/>
      <point x="257" y="369" type="curve" smooth="yes"/>
      <point x="327" y="369"/>
      <point x="380" y="299"/>
    </contour>
  </outline>
</glyph>
<glyph name="g" format="2">
  <advance width="483"/>
  <unicode hex="0067"/>
  <outline>
    <contour>
      <point x="451" y="-70" type="curve" smooth="yes"/>
      <point x="451" y="-27"/>
      <point x="436" y="6"/>
      <point x="400" y="22" type="curve" smooth="yes"/>
      <point x="354" y="43"/>
      <point x="302" y="44"/>
      <point x="242" y="45" type="curve" smooth="yes"/>
      <point x="118" y="46"/>
      <point x="118" y="63"/>
      <point x="118" y="73" type="curve" smooth="yes"/>
      <point x="118" y="82"/>
      <point x="126" y="90"/>
      <point x="137" y="99" type="curve" smooth="yes"/>
      <point x="146" y="107"/>
      <point x="158" y="115"/>
      <point x="165" y="125" type="curve"/>
      <point x="179" y="121"/>
      <point x="192" y="119"/>
      <point x="206" y="119" type="curve" smooth="yes"/>
      <point x="303" y="119"/>
      <point x="375" y="181"/>
      <point x="375" y="271" type="curve" smooth="yes"/>
      <point x="375" y="290"/>
      <point x="374" y="301"/>
      <point x="366" y="321" type="curve"/>
      <point x="365" y="324"/>
      <point x="373" y="330"/>
      <point x="376" y="329" type="curve"/>
      <point x="397" y="326"/>
      <point x="432" y="322"/>
      <point x="438" y="322" type="curve" smooth="yes"/>
      <point x="446" y="322"/>
      <point x="447" y="329"/>
      <point x="448" y="335" type="curve"/>
      <point x="449" y="352"/>
      <point x="447" y="367"/>
      <point x="445" y="384" type="curve"/>
      <point x="444" y="399"/>
      <point x="440" y="400"/>
      <point x="426" y="398" type="curve" smooth="yes"/>
      <point x="400" y="394"/>
      <point x="341" y="387"/>
      <point x="335" y="387" type="curve" smooth="yes"/>
      <point x="327" y="387" type="line"/>
      <point x="301" y="415"/>
      <point x="264" y="429"/>
      <point x="221" y="429" type="curve" smooth="yes"/>
      <point x="127" y="429"/>
      <point x="53" y="357"/>
      <point x="53" y="262" type="curve" smooth="yes"/>
      <point x="53" y="206"/>
      <point x="82" y="163"/>
      <point x="132" y="138" type="curve"/>
      <point x="137" y="135"/>
      <point x="129" y="130"/>
      <point x="127" y="129" type="curve"/>
      <point x="117" y="123"/>
      <point x="105" y="116"/>
      <point x="89" y="107" type="curve" smooth="yes"/>
      <point x="67" y="95"/>
      <point x="47" y="82"/>
      <point x="47" y="64" type="curve" smooth="yes"/>
      <point x="47" y="36"/>
      <point x="63" y="9"/>
      <point x="117" y="-10" type="curve" smooth="yes"/>
      <point x="122" y="-12"/>
      <point x="118" y="-22"/>
      <point x="112" y="-27" type="curve"/>
      <point x="104" y="-32"/>
      <point x="96" y="-36"/>
      <point x="88" y="-42" type="curve"/>
      <point x="52" y="-66"/>
      <point x="27" y="-91"/>
      <point x="27" y="-140" type="curve" smooth="yes"/>
      <point x="27" y="-209"/>
      <point x="121" y="-250"/>
      <point x="188" y="-250" type="curve" smooth="yes"/>
      <point x="331" y="-250"/>
      <point x="451" y="-172"/>
    </contour>
    <contour>
      <point x="301" y="265" type="curve" smooth="yes"/>
      <point x="301" y="194"/>
      <point x="266" y="154"/>
      <point x="217" y="154" type="curve" smooth="yes"/>
      <point x="167" y="154"/>
      <point x="127" y="202"/>
      <point x="127" y="284" type="curve" smooth="yes"/>
      <point x="127" y="348"/>
      <point x="162" y="396"/>
      <point x="209" y="396" type="curve" smooth="yes"/>
      <point x="261" y="396"/>
      <point x="301" y="342"/>
    </contour>
    <contour>
      <point x="392" y="-97" type="curve" smooth="yes"/>
      <point x="392" y="-148"/>
      <point x="307" y="-199"/>
      <point x="243" y="-199" type="curve" smooth="yes"/>
      <point x="170" y="-199"/>
      <point x="99" y="-165"/>
      <point x="100" y="-113" type="curve" smooth="yes"/>
      <point x="100" y="-87"/>
      <point x="134" y="-54"/>
      <point x="152" y="-36" type="curve" smooth="yes"/>
      <point x="158" y="-30"/>
      <point x="163" y="-25"/>
      <point x="165" y="-21" type="curve"/>
      <point x="209" y="-23"/>
      <point x="237" y="-21"/>
      <point x="281" y="-24" type="curve" smooth="yes"/>
      <point x="366" y="-31"/>
      <point x="392" y="-52"/>
    </contour>
  </outline>
</glyph>
<glyph name="m" format="2">
  <advance width="812"/>
  <unicode hex="006D"/>
  <outline>
    <contour>
      <point x="802" y="12" type="curve"/>
      <point x="803" y="19"/>
      <point x="803" y="29"/>
      <point x="798" y="31" type="curve"/>
      <point x="794" y="34"/>
      <point x="784" y="34"/>
      <point x="779" y="33" type="curve"/>
      <point x="721" y="33"/>
      <point x="712" y="39"/>
      <point x="712" y="71" type="curve" smooth="yes"/>
      <point x="712" y="124"/>
      <point x="716" y="176"/>
      <point x="716" y="229" type="curve" smooth="yes"/>
      <point x="716" y="310"/>
      <point x="714" y="339"/>
      <point x="701" y="369" type="curve" smooth="yes"/>
      <point x="685" y="406"/>
      <point x="651" y="429"/>
      <point x="609" y="429" type="curve" smooth="yes"/>
      <point x="550" y="429"/>
      <point x="496" y="389"/>
      <point x="449" y="356" type="curve"/>
      <point x="444" y="352"/>
      <point x="439" y="352"/>
      <point x="438" y="356" type="curve"/>
      <point x="424" y="401"/>
      <point x="388" y="429"/>
      <point x="342" y="429" type="curve" smooth="yes"/>
      <point x="285" y="429"/>
      <point x="229" y="392"/>
      <point x="185" y="361" type="curve"/>
      <point x="180" y="357"/>
      <point x="173" y="354"/>
      <point x="172" y="362" type="curve"/>
      <point x="172" y="421" type="line" smooth="yes"/>
      <point x="172" y="432"/>
      <point x="170" y="442"/>
      <point x="157" y="439" type="curve" smooth="yes"/>
      <point x="111" y="427"/>
      <point x="54" y="409"/>
      <point x="26" y="396" type="curve"/>
      <point x="21" y="394"/>
      <point x="18" y="370"/>
      <point x="26" y="369" type="curve" smooth="yes"/>
      <point x="49" y="366" type="line" smooth="yes"/>
      <point x="77" y="362"/>
      <point x="86" y="358"/>
      <point x="90" y="350" type="curve"/>
      <point x="93" y="346"/>
      <point x="93" y="328"/>
      <point x="93" y="275" type="curve" smooth="yes"/>
      <point x="93" y="132" type="line" smooth="yes"/>
      <point x="93" y="46"/>
      <point x="84" y="33"/>
      <point x="40" y="31" type="curve" smooth="yes"/>
      <point x="33" y="31"/>
      <point x="21" y="31"/>
      <point x="18" y="24" type="curve" smooth="yes"/>
      <point x="16" y="19"/>
      <point x="15" y="9"/>
      <point x="17" y="4" type="curve"/>
      <point x="19" y="-2"/>
      <point x="23" y="-3"/>
      <point x="26" y="-3" type="curve" smooth="yes"/>
      <point x="84" y="-1"/>
      <point x="188" y="-1"/>
      <point x="238" y="-3" type="curve"/>
      <point x="242" y="-4"/>
      <point x="247" y="4"/>
      <point x="248" y="11" type="curve"/>
      <point x="248" y="19"/>
      <point x="245" y="28"/>
      <point x="241" y="29" type="curve"/>
      <point x="240" y="30"/>
      <point x="236" y="30"/>
      <point x="232" y="29" type="curve"/>
      <point x="181" y="29"/>
      <point x="172" y="38"/>
      <point x="172" y="89" type="curve" smooth="yes"/>
      <point x="172" y="320" type="line"/>
      <point x="206" y="343"/>
      <point x="255" y="378"/>
      <point x="298" y="378" type="curve" smooth="yes"/>
      <point x="339" y="378"/>
      <point x="365" y="348"/>
      <point x="365" y="295" type="curve" smooth="yes"/>
      <point x="365" y="132" type="line" smooth="yes"/>
      <point x="365" y="41"/>
      <point x="357" y="30"/>
      <point x="305" y="30" type="curve" smooth="yes"/>
      <point x="301" y="30"/>
      <point x="295" y="31"/>
      <point x="292" y="29" type="curve"/>
      <point x="280" y="24"/>
      <point x="282" y="-2"/>
      <point x="294" y="-2" type="curve" smooth="yes"/>
      <point x="349" y="-1"/>
      <point x="452" y="-2"/>
      <point x="502" y="-3" type="curve" smooth="yes"/>
      <point x="507" y="-3"/>
      <point x="512" y="6"/>
      <point x="512" y="14" type="curve"/>
      <point x="511" y="26"/>
      <point x="509" y="29"/>
      <point x="498" y="29" type="curve" smooth="yes"/>
      <point x="454" y="29"/>
      <point x="443" y="40"/>
      <point x="443" y="89" type="curve" smooth="yes"/>
      <point x="443" y="320" type="line"/>
      <point x="494" y="355"/>
      <point x="536" y="378"/>
      <point x="565" y="378" type="curve" smooth="yes"/>
      <point x="618" y="378"/>
      <point x="636" y="348"/>
      <point x="636" y="221" type="curve" smooth="yes"/>
      <point x="636" y="161"/>
      <point x="634" y="122"/>
      <point x="631" y="81" type="curve" smooth="yes"/>
      <point x="627" y="39"/>
      <point x="617" y="29"/>
      <point x="574" y="29" type="curve" smooth="yes"/>
      <point x="564" y="29" type="line" smooth="yes"/>
      <point x="552" y="29"/>
      <point x="554" y="10"/>
      <point x="557" y="3" type="curve" smooth="yes"/>
      <point x="560" y="-4"/>
      <point x="564" y="-3"/>
      <point x="570" y="-3" type="curve" smooth="yes"/>
      <point x="638" y="-2"/>
      <point x="723" y="0"/>
      <point x="792" y="-3" type="curve"/>
      <point x="797" y="-4"/>
      <point x="802" y="4"/>
    </contour>
  </outline>
</glyph>
<glyph name="o" format="2">
  <advance width="495"/>
  <unicode hex="006F"/>
  <outline>
    <contour>
      <point x="476" y="206" type="curve" smooth="yes"/>
      <point x="477" y="333"/>
      <point x="377" y="430"/>
      <point x="248" y="430" type="curve" smooth="yes"/>
      <point x="120" y="430"/>
      <point x="23" y="335"/>
      <point x="23" y="207" type="curve" smooth="yes"/>
      <point x="23" y="81"/>
      <point x="121" y="-15"/>
      <point x="251" y="-15" type="curve" smooth="yes"/>
      <point x="377" y="-15"/>
      <point x="476" y="82"/>
    </contour>
    <contour>
      <point x="387" y="182" type="curve" smooth="yes"/>
      <point x="387" y="88"/>
      <point x="333" y="22"/>
      <point x="263" y="22" type="curve" smooth="yes"/>
      <point x="180" y="22"/>
      <point x="110" y="117"/>
      <point x="110" y="239" type="curve" smooth="yes"/>
      <point x="110" y="329"/>
      <point x="164" y="394"/>
      <point x="234" y="394" type="curve" smooth="yes"/>
      <point x="316" y="394"/>
      <point x="387" y="298"/>
    </contour>
  </outline>
</glyph>
<glyph name="t" format="2">
  <advance width="319"/>
  <unicode hex="0074"/>
  <outline>
    <contour>
      <point x="294" y="80" type="curve"/>
      <point x="295" y="83"/>
      <point x="297" y="95"/>
      <point x="293" y="99" type="curve"/>
      <point x="287" y="106"/>
      <point x="272" y="106"/>
      <point x="270" y="100" type="curve"/>
      <point x="250" y="62"/>
      <point x="230" y="47"/>
      <point x="210" y="47" type="curve" smooth="yes"/>
      <point x="163" y="47"/>
      <point x="146" y="75"/>
      <point x="146" y="179" type="curve" smooth="yes"/>
      <point x="146" y="356" type="line"/>
      <point x="147" y="361"/>
      <point x="155" y="368"/>
      <point x="161" y="368" type="curve" smooth="yes"/>
      <point x="256" y="366" type="line" smooth="yes"/>
      <point x="268" y="366"/>
      <point x="269" y="369"/>
      <point x="272" y="374" type="curve"/>
      <point x="276" y="383"/>
      <point x="280" y="397"/>
      <point x="281" y="407" type="curve"/>
      <point x="285" y="419"/>
      <point x="277" y="423"/>
      <point x="269" y="423" type="curve" smooth="yes"/>
      <point x="158" y="423" type="line" smooth="yes"/>
      <point x="154" y="423"/>
      <point x="147" y="430"/>
      <point x="146" y="436" type="curve"/>
      <point x="144" y="459"/>
      <point x="145" y="501"/>
      <point x="146" y="524" type="curve" smooth="yes"/>
      <point x="147" y="537"/>
      <point x="122" y="532"/>
      <point x="121" y="524" type="curve"/>
      <point x="98" y="459"/>
      <point x="68" y="417"/>
      <point x="29" y="397" type="curve" smooth="yes"/>
      <point x="27" y="396"/>
      <point x="22" y="392"/>
      <point x="21" y="390" type="curve"/>
      <point x="19" y="385"/>
      <point x="21" y="374"/>
      <point x="24" y="369" type="curve"/>
      <point x="32" y="367"/>
      <point x="38" y="366"/>
      <point x="44" y="366" type="curve" smooth="yes"/>
      <point x="50" y="366"/>
      <point x="56" y="366"/>
      <point x="64" y="366" type="curve"/>
      <point x="67" y="365"/>
      <point x="70" y="358"/>
      <point x="70" y="355" type="curve" smooth="yes"/>
      <point x="70" y="155" type="line"/>
      <point x="70" y="114" type="line" smooth="yes"/>
      <point x="70" y="41"/>
      <point x="114" y="-11"/>
      <point x="177" y="-11" type="curve" smooth="yes"/>
      <point x="227" y="-11"/>
      <point x="268" y="22"/>
    </contour>
  </outline>
</glyph>
<glyph name="Ntilde" format="2">
  <advance width="834"/>
  <unicode hex="00D1"/>
  <outline>
    <contour>
      <point x="805" y="633" type="curve"/>
      <point x="804" y="636"/>
      <point x="804" y="652"/>
      <point x="799" y="652" type="curve" smooth="yes"/>
      <point x="708" y="650"/>
      <point x="631" y="648"/>
      <point x="553" y="651" type="curve" smooth="yes"/>
      <point x="538" y="652"/>
      <point x="541" y="618"/>
      <point x="553" y="617" type="curve" smooth="yes"/>
      <point x="576" y="616"/>
      <point x="594" y="615"/>
      <point x="608" y="613" type="curve" smooth="yes"/>
      <point x="621" y="611"/>
      <point x="630" y="607"/>
      <point x="636" y="601" type="curve" smooth="yes"/>
      <point x="649" y="589"/>
      <point x="649" y="564"/>
      <point x="649" y="515" type="curve" smooth="yes"/>
      <point x="649" y="185" type="line" smooth="yes"/>
      <point x="649" y="177"/>
      <point x="638" y="162"/>
      <point x="632" y="171" type="curve"/>
      <point x="223" y="639" type="line" smooth="yes"/>
      <point x="217" y="646"/>
      <point x="204" y="651"/>
      <point x="199" y="651" type="curve" smooth="yes"/>
      <point x="173" y="650"/>
      <point x="127" y="649"/>
      <point x="56" y="651" type="curve" smooth="yes"/>
      <point x="46" y="651"/>
      <point x="40" y="648"/>
      <point x="40" y="635" type="curve" smooth="yes"/>
      <point x="40" y="627"/>
      <point x="43" y="617"/>
      <point x="48" y="618" type="curve"/>
      <point x="85" y="617"/>
      <point x="110" y="611"/>
      <point x="129" y="597" type="curve"/>
      <point x="129" y="92" type="line" smooth="yes"/>
      <point x="129" y="45"/>
      <point x="96" y="34"/>
      <point x="52" y="34" type="curve" smooth="yes"/>
      <point x="46" y="34"/>
      <point x="41" y="33"/>
      <point x="37" y="27" type="curve" smooth="yes"/>
      <point x="32" y="20"/>
      <point x="32" y="-5"/>
      <point x="44" y="-4" type="curve" smooth="yes"/>
      <point x="105" y="-1"/>
      <point x="219" y="-2"/>
      <point x="281" y="-3" type="curve" smooth="yes"/>
      <point x="298" y="-3"/>
      <point x="298" y="17"/>
      <point x="293" y="29" type="curve"/>
      <point x="288" y="39"/>
      <point x="253" y="35"/>
      <point x="242" y="36" type="curve" smooth="yes"/>
      <point x="214" y="38"/>
      <point x="200" y="52"/>
      <point x="194" y="71" type="curve" smooth="yes"/>
      <point x="187" y="91"/>
      <point x="188" y="118"/>
      <point x="188" y="139" type="curve" smooth="yes"/>
      <point x="188" y="508" type="line" smooth="yes"/>
      <point x="188" y="524"/>
      <point x="193" y="532"/>
      <point x="199" y="529" type="curve"/>
      <point x="199" y="529"/>
      <point x="314" y="398"/>
      <point x="431" y="265" type="curve" smooth="yes"/>
      <point x="547" y="133"/>
      <point x="665" y="-1"/>
      <point x="670" y="-6" type="curve"/>
      <point x="674" y="-14"/>
      <point x="708" y="-15"/>
      <point x="708" y="4" type="curve" smooth="yes"/>
      <point x="708" y="532" type="line" smooth="yes"/>
      <point x="708" y="610"/>
      <point x="714" y="616"/>
      <point x="791" y="618" type="curve" smooth="yes"/>
      <point x="803" y="618"/>
      <point x="806" y="620"/>
    </contour>
    <contour>
      <point x="592" y="821" type="curve" smooth="yes"/>
      <point x="592" y="824"/>
      <point x="592" y="828"/>
      <point x="590" y="834" type="curve"/>
      <point x="590" y="838"/>
      <point x="584" y="841"/>
      <point x="578" y="840" type="curve"/>
      <point x="572" y="840"/>
      <point x="565" y="838"/>
      <point x="565" y="834" type="curve"/>
      <point x="557" y="780"/>
      <point x="546" y="768"/>
      <point x="525" y="768" type="curve" smooth="yes"/>
      <point x="513" y="768"/>
      <point x="497" y="774"/>
      <point x="466" y="795" type="curve" smooth="yes"/>
      <point x="421" y="826"/>
      <point x="398" y="835"/>
      <point x="368" y="835" type="curve" smooth="yes"/>
      <point x="307" y="835"/>
      <point x="274" y="786"/>
      <point x="270" y="700" type="curve"/>
      <point x="272" y="687"/>
      <point x="293" y="692"/>
      <point x="297" y="700" type="curve"/>
      <point x="298" y="710"/>
      <point x="300" y="714"/>
      <point x="300" y="718" type="curve"/>
      <point x="308" y="754"/>
      <point x="318" y="765"/>
      <point x="337" y="765" type="curve" smooth="yes"/>
      <point x="350" y="765"/>
      <point x="359" y="762"/>
      <point x="396" y="736" type="curve" smooth="yes"/>
      <point x="434" y="710"/>
      <point x="466" y="697"/>
      <point x="493" y="697" type="curve" smooth="yes"/>
      <point x="551" y="697"/>
      <point x="592" y="750"/>
    </contour>
  </outline>
</glyph>
<glyph name="Oslash" format="2">
  <advance width="865"/>
  <unicode hex="00D8"/>
  <outline>
    <contour>
      <point x="808" y="342" type="curve" smooth="yes"/>
      <point x="808" y="441"/>
      <point x="773" y="518"/>
      <point x="698" y="583" type="curve" smooth="yes"/>
      <point x="691" y="589"/>
      <point x="686" y="594"/>
      <point x="694" y="603" type="curve" smooth="yes"/>
      <point x="753" y="670" type="line" smooth="yes"/>
      <point x="760" y="678"/>
      <point x="766" y="687"/>
      <point x="757" y="693" type="curve"/>
      <point x="749" y="699" type="line" smooth="yes"/>
      <point x="741" y="705"/>
      <point x="734" y="701"/>
      <point x="731" y="698" type="curve"/>
      <point x="670" y="624" type="line" smooth="yes"/>
      <point x="662" y="615"/>
      <point x="657" y="613"/>
      <point x="649" y="618" type="curve" smooth="yes"/>
      <point x="583" y="658"/>
      <point x="512" y="675"/>
      <point x="435" y="675" type="curve" smooth="yes"/>
      <point x="219" y="675"/>
      <point x="53" y="520"/>
      <point x="53" y="317" type="curve" smooth="yes"/>
      <point x="53" y="217"/>
      <point x="96" y="129"/>
      <point x="171" y="67" type="curve" smooth="yes"/>
      <point x="175" y="64"/>
      <point x="177" y="53"/>
      <point x="169" y="44" type="curve" smooth="yes"/>
      <point x="91" y="-43" type="line" smooth="yes"/>
      <point x="81" y="-55"/>
      <point x="92" y="-61"/>
      <point x="101" y="-68" type="curve"/>
      <point x="109" y="-75"/>
      <point x="114" y="-69"/>
      <point x="120" y="-62" type="curve" smooth="yes"/>
      <point x="195" y="27" type="line" smooth="yes"/>
      <point x="205" y="39"/>
      <point x="215" y="37"/>
      <point x="224" y="32" type="curve" smooth="yes"/>
      <point x="286" y="-2"/>
      <point x="359" y="-21"/>
      <point x="432" y="-21" type="curve" smooth="yes"/>
      <point x="644" y="-21"/>
      <point x="808" y="137"/>
    </contour>
    <contour>
      <point x="597" y="566" type="curve" smooth="yes"/>
      <point x="608" y="556"/>
      <point x="602" y="548"/>
      <point x="595" y="542" type="curve"/>
      <point x="507" y="445"/>
      <point x="335" y="242"/>
      <point x="248" y="136" type="curve" smooth="yes"/>
      <point x="241" y="128"/>
      <point x="232" y="125"/>
      <point x="222" y="139" type="curve" smooth="yes"/>
      <point x="183" y="195"/>
      <point x="162" y="264"/>
      <point x="162" y="342" type="curve" smooth="yes"/>
      <point x="162" y="516"/>
      <point x="265" y="639"/>
      <point x="406" y="639" type="curve" smooth="yes"/>
      <point x="480" y="639"/>
      <point x="546" y="613"/>
    </contour>
    <contour>
      <point x="699" y="310" type="curve" smooth="yes"/>
      <point x="699" y="235"/>
      <point x="679" y="168"/>
      <point x="641" y="114" type="curve" smooth="yes"/>
      <point x="594" y="46"/>
      <point x="534" y="15"/>
      <point x="450" y="15" type="curve" smooth="yes"/>
      <point x="384" y="15"/>
      <point x="326" y="37"/>
      <point x="273" y="82" type="curve"/>
      <point x="269" y="86"/>
      <point x="260" y="98"/>
      <point x="270" y="110" type="curve" smooth="yes"/>
      <point x="357" y="211"/>
      <point x="531" y="414"/>
      <point x="619" y="516" type="curve" smooth="yes"/>
      <point x="627" y="525"/>
      <point x="636" y="523"/>
      <point x="639" y="519" type="curve" smooth="yes"/>
      <point x="679" y="461"/>
      <point x="699" y="390"/>
    </contour>
  </outline>
</glyph>
<glyph name="agrave" format="2">
  <advance width="414"/>
  <unicode hex="00E0"/>
  <outline>
    <contour>
      <point x="263" y="487" type="curve"/>
      <point x="253" y="530"/>
      <point x="230" y="605"/>
      <point x="213" y="650" type="curve"/>
      <point x="209" y="658"/>
      <point x="203" y="658"/>
      <point x="195" y="658" type="curve" smooth="yes"/>
      <point x="118" y="657" type="line" smooth="yes"/>
      <point x="105" y="657"/>
      <point x="98" y="644"/>
      <point x="103" y="638" type="curve"/>
      <point x="147" y="591"/>
      <point x="206" y="522"/>
      <point x="238" y="480" type="curve"/>
      <point x="245" y="473"/>
      <point x="263" y="474"/>
    </contour>
    <contour>
      <point x="397" y="46" type="curve"/>
      <point x="400" y="54"/>
      <point x="401" y="69"/>
      <point x="390" y="71" type="curve"/>
      <point x="385" y="71"/>
      <point x="384" y="70"/>
      <point x="381" y="68" type="curve"/>
      <point x="371" y="59"/>
      <point x="363" y="55"/>
      <point x="357" y="53" type="curve"/>
      <point x="351" y="50"/>
      <point x="346" y="50"/>
      <point x="339" y="50" type="curve" smooth="yes"/>
      <point x="325" y="50"/>
      <point x="317" y="57"/>
      <point x="317" y="99" type="curve" smooth="yes"/>
      <point x="317" y="281" type="line" smooth="yes"/>
      <point x="317" y="344"/>
      <point x="316" y="352"/>
      <point x="300" y="374" type="curve" smooth="yes"/>
      <point x="277" y="407"/>
      <point x="231" y="431"/>
      <point x="188" y="431" type="curve" smooth="yes"/>
      <point x="156" y="431"/>
      <point x="131" y="420"/>
      <point x="94" y="390" type="curve" smooth="yes"/>
      <point x="55" y="360"/>
      <point x="31" y="330"/>
      <point x="31" y="305" type="curve" smooth="yes"/>
      <point x="31" y="286"/>
      <point x="37" y="284"/>
      <point x="54" y="290" type="curve"/>
      <point x="61" y="292"/>
      <point x="107" y="312"/>
      <point x="114" y="320" type="curve"/>
      <point x="110" y="329"/>
      <point x="111" y="335"/>
      <point x="111" y="344" type="curve" smooth="yes"/>
      <point x="111" y="367"/>
      <point x="147" y="389"/>
      <point x="168" y="389" type="curve" smooth="yes"/>
      <point x="210" y="389"/>
      <point x="235" y="357"/>
      <point x="236" y="299" type="curve" smooth="yes"/>
      <point x="237" y="235" type="line" smooth="yes"/>
      <point x="237" y="225"/>
      <point x="229" y="219"/>
      <point x="226" y="217" type="curve"/>
      <point x="192" y="201"/>
      <point x="167" y="190"/>
      <point x="131" y="180" type="curve" smooth="yes"/>
      <point x="62" y="162"/>
      <point x="25" y="129"/>
      <point x="25" y="78" type="curve" smooth="yes"/>
      <point x="25" y="25"/>
      <point x="65" y="-12"/>
      <point x="122" y="-12" type="curve" smooth="yes"/>
      <point x="160" y="-12"/>
      <point x="181" y="-2"/>
      <point x="224" y="35" type="curve"/>
      <point x="227" y="37"/>
      <point x="237" y="49"/>
      <point x="239" y="40" type="curve" smooth="yes"/>
      <point x="245" y="5"/>
      <point x="262" y="-12"/>
      <point x="291" y="-12" type="curve" smooth="yes"/>
      <point x="316" y="-12"/>
      <point x="356" y="10"/>
    </contour>
    <contour>
      <point x="236" y="89" type="line"/>
      <point x="228" y="66"/>
      <point x="177" y="36"/>
      <point x="157" y="36" type="curve" smooth="yes"/>
      <point x="126" y="36"/>
      <point x="102" y="60"/>
      <point x="102" y="91" type="curve" smooth="yes"/>
      <point x="102" y="118"/>
      <point x="116" y="136"/>
      <point x="156" y="152" type="curve" smooth="yes"/>
      <point x="180" y="162"/>
      <point x="204" y="172"/>
      <point x="227" y="183" type="curve" smooth="yes"/>
      <point x="236" y="187"/>
      <point x="236" y="176"/>
      <point x="236" y="172" type="curve" smooth="yes"/>
    </contour>
  </outline>
</glyph>
<glyph name="ae" format="2">
  <advance width="654"/>
  <unicode hex="00E6"/>
  <outline>
    <contour>
      <point x="627" y="277" type="curve" smooth="yes"/>
      <point x="627" y="292" type="line"/>
      <point x="617" y="302"/>
      <point x="614" y="305"/>
      <point x="610" y="315" type="curve"/>
      <point x="608" y="319"/>
      <point x="606" y="323"/>
      <point x="604" y="328" type="curve"/>
      <point x="569" y="404"/>
      <point x="531" y="433"/>
      <point x="460" y="433" type="curve" smooth="yes"/>
      <point x="409" y="433"/>
      <point x="366" y="415"/>
      <point x="330" y="383" type="curve"/>
      <point x="325" y="377"/>
      <point x="321" y="373"/>
      <point x="315" y="380" type="curve" smooth="yes"/>
      <point x="289" y="411"/>
      <point x="247" y="431"/>
      <point x="206" y="431" type="curve" smooth="yes"/>
      <point x="175" y="431"/>
      <point x="147" y="420"/>
      <point x="111" y="393" type="curve" smooth="yes"/>
      <point x="66" y="358"/>
      <point x="45" y="333"/>
      <point x="45" y="307" type="curve" smooth="yes"/>
      <point x="45" y="295"/>
      <point x="50" y="280"/>
      <point x="65" y="287" type="curve" smooth="yes"/>
      <point x="120" y="312" type="line" smooth="yes"/>
      <point x="133" y="318"/>
      <point x="126" y="331"/>
      <point x="126" y="341" type="curve" smooth="yes"/>
      <point x="126" y="365"/>
      <point x="154" y="387"/>
      <point x="188" y="387" type="curve" smooth="yes"/>
      <point x="233" y="387"/>
      <point x="259" y="354"/>
      <point x="259" y="291" type="curve" smooth="yes"/>
      <point x="259" y="221" type="line"/>
      <point x="229" y="202"/>
      <point x="208" y="191"/>
      <point x="167" y="181" type="curve" smooth="yes"/>
      <point x="66" y="155"/>
      <point x="37" y="133"/>
      <point x="37" y="74" type="curve" smooth="yes"/>
      <point x="37" y="22"/>
      <point x="79" y="-17"/>
      <point x="135" y="-17" type="curve" smooth="yes"/>
      <point x="181" y="-17"/>
      <point x="240" y="15"/>
      <point x="282" y="60" type="curve" smooth="yes"/>
      <point x="288" y="66"/>
      <point x="293" y="65"/>
      <point x="297" y="59" type="curve" smooth="yes"/>
      <point x="331" y="10"/>
      <point x="380" y="-17"/>
      <point x="436" y="-17" type="curve" smooth="yes"/>
      <point x="468" y="-17"/>
      <point x="498" y="-7"/>
      <point x="528" y="12" type="curve" smooth="yes"/>
      <point x="558" y="31"/>
      <point x="584" y="54"/>
      <point x="611" y="85" type="curve" smooth="yes"/>
      <point x="616" y="91"/>
      <point x="618" y="98"/>
      <point x="613" y="102" type="curve"/>
      <point x="606" y="110" type="line"/>
      <point x="602" y="114"/>
      <point x="591" y="113"/>
      <point x="586" y="108" type="curve" smooth="yes"/>
      <point x="545" y="64"/>
      <point x="517" y="48"/>
      <point x="474" y="48" type="curve" smooth="yes"/>
      <point x="420" y="48"/>
      <point x="367" y="85"/>
      <point x="350" y="138" type="curve" smooth="yes"/>
      <point x="342" y="161"/>
      <point x="337" y="206"/>
      <point x="337" y="243" type="curve" smooth="yes"/>
      <point x="337" y="258"/>
      <point x="343" y="265"/>
      <point x="362" y="265" type="curve" smooth="yes"/>
      <point x="607" y="265" type="line" smooth="yes"/>
      <point x="616" y="265"/>
      <point x="627" y="265"/>
    </contour>
    <contour>
      <point x="524" y="309" type="curve"/>
      <point x="526" y="303"/>
      <point x="520" y="297"/>
      <point x="514" y="297" type="curve" smooth="yes"/>
      <point x="365" y="297" type="line" smooth="yes"/>
      <point x="358" y="297"/>
      <point x="341" y="296"/>
      <point x="343" y="307" type="curve"/>
      <point x="357" y="366"/>
      <point x="391" y="399"/>
      <point x="438" y="399" type="curve" smooth="yes"/>
      <point x="477" y="399"/>
      <point x="512" y="366"/>
    </contour>
    <contour>
      <point x="259" y="78" type="line"/>
      <point x="226" y="46"/>
      <point x="197" y="31"/>
      <point x="171" y="31" type="curve" smooth="yes"/>
      <point x="138" y="31"/>
      <point x="116" y="54"/>
      <point x="116" y="88" type="curve" smooth="yes"/>
      <point x="116" y="120"/>
      <point x="131" y="135"/>
      <point x="187" y="154" type="curve" smooth="yes"/>
      <point x="217" y="164"/>
      <point x="235" y="173"/>
      <point x="249" y="180" type="curve" smooth="yes"/>
      <point x="255" y="183"/>
      <point x="259" y="179"/>
      <point x="259" y="171" type="curve" smooth="yes"/>
    </contour>
  </outline>
</glyph>
<glyph name="divide" format="2">
  <advance width="699"/>
  <unicode hex="00F7"/>
  <outline>
    <contour>
      <point x="392" y="551" type="curve" smooth="yes"/>
      <point x="392" y="574"/>
      <point x="373" y="592"/>
      <point x="350" y="592" type="curve" smooth="yes"/>
      <point x="328" y="592"/>
      <point x="307" y="576"/>
      <point x="307" y="553" type="curve"/>
      <point x="306" y="528"/>
      <point x="326" y="508"/>
      <point x="350" y="508" type="curve" smooth="yes"/>
      <point x="373" y="508"/>
      <point x="392" y="527"/>
    </contour>
    <contour>
      <point x="631" y="326" type="curve" smooth="yes"/>
      <point x="629" y="355" type="line" smooth="yes"/>
      <point x="628" y="364"/>
      <point x="623" y="368"/>
      <point x="615" y="370" type="curve" smooth="yes"/>
      <point x="611" y="371"/>
      <point x="606" y="371"/>
      <point x="601" y="371" type="curve" smooth="yes"/>
      <point x="596" y="371"/>
      <point x="590" y="371"/>
      <point x="583" y="371" type="curve" smooth="yes"/>
      <point x="105" y="371" type="line" smooth="yes"/>
      <point x="92" y="371"/>
      <point x="74" y="371"/>
      <point x="74" y="353" type="curve" smooth="yes"/>
      <point x="74" y="328" type="line" smooth="yes"/>
      <point x="74" y="317"/>
      <point x="95" y="306"/>
      <point x="106" y="306" type="curve" smooth="yes"/>
      <point x="600" y="306" type="line" smooth="yes"/>
      <point x="614" y="306"/>
      <point x="632" y="307"/>
    </contour>
    <contour>
      <point x="392" y="130" type="curve" smooth="yes"/>
      <point x="392" y="154"/>
      <point x="374" y="172"/>
      <point x="350" y="172" type="curve" smooth="yes"/>
      <point x="327" y="172"/>
      <point x="307" y="154"/>
      <point x="307" y="130" type="curve" smooth="yes"/>
      <point x="307" y="106"/>
      <point x="327" y="87"/>
      <point x="350" y="87" type="curve" smooth="yes"/>
      <point x="374" y="87"/>
      <point x="392" y="107"/>
    </contour>
  </outline>
</glyph>
<glyph name="uacute" format="2">
  <advance width="534"/>
  <unicode hex="00FA"/>
  <outline>
    <contour>
      <point x="386" y="652" type="curve"/>
      <point x="388" y="660"/>
      <point x="379" y="661"/>
      <point x="372" y="661" type="curve" smooth="yes"/>
      <point x="283" y="661" type="line" smooth="yes"/>
      <point x="277" y="661"/>
      <point x="269" y="656"/>
      <point x="265" y="648" type="curve"/>
      <point x="216" y="484" type="line" smooth="yes"/>
      <point x="211" y="468"/>
      <point x="235" y="468"/>
      <point x="242" y="475" type="curve"/>
      <point x="385" y="647" type="line"/>
      <point x="385" y="648"/>
      <point x="386" y="650"/>
    </contour>
    <contour>
      <point x="513" y="31" type="curve"/>
      <point x="525" y="33"/>
      <point x="524" y="65"/>
      <point x="512" y="63" type="curve"/>
      <point x="505" y="61"/>
      <point x="498" y="59"/>
      <point x="491" y="57" type="curve" smooth="yes"/>
      <point x="471" y="52"/>
      <point x="448" y="48"/>
      <point x="448" y="79" type="curve" smooth="yes"/>
      <point x="448" y="110" type="line"/>
      <point x="448" y="428" type="line" smooth="yes"/>
      <point x="448" y="441"/>
      <point x="439" y="445"/>
      <point x="428" y="444" type="curve" smooth="yes"/>
      <point x="392" y="440"/>
      <point x="326" y="426"/>
      <point x="285" y="417" type="curve" smooth="yes"/>
      <point x="277" y="415"/>
      <point x="275" y="395"/>
      <point x="283" y="391" type="curve"/>
      <point x="303" y="388"/>
      <point x="311" y="387"/>
      <point x="316" y="386" type="curve"/>
      <point x="322" y="384"/>
      <point x="325" y="384"/>
      <point x="338" y="381" type="curve"/>
      <point x="355" y="378"/>
      <point x="364" y="366"/>
      <point x="368" y="350" type="curve" smooth="yes"/>
      <point x="372" y="331"/>
      <point x="371" y="311"/>
      <point x="371" y="291" type="curve" smooth="yes"/>
      <point x="371" y="118" type="line" smooth="yes"/>
      <point x="371" y="110"/>
      <point x="367" y="100"/>
      <point x="367" y="99" type="curve"/>
      <point x="328" y="68"/>
      <point x="286" y="49"/>
      <point x="255" y="49" type="curve" smooth="yes"/>
      <point x="188" y="49"/>
      <point x="167" y="76"/>
      <point x="167" y="184" type="curve" smooth="yes"/>
      <point x="167" y="424" type="line" smooth="yes"/>
      <point x="167" y="432"/>
      <point x="163" y="445"/>
      <point x="151" y="443" type="curve" smooth="yes"/>
      <point x="116" y="436"/>
      <point x="57" y="420"/>
      <point x="26" y="413" type="curve" smooth="yes"/>
      <point x="14" y="410"/>
      <point x="21" y="389"/>
      <point x="26" y="388" type="curve"/>
      <point x="39" y="384"/>
      <point x="53" y="381"/>
      <point x="66" y="376" type="curve"/>
      <point x="86" y="371"/>
      <point x="88" y="360"/>
      <point x="88" y="339" type="curve" smooth="yes"/>
      <point x="88" y="128" type="line" smooth="yes"/>
      <point x="88" y="43"/>
      <point x="123" y="-10"/>
      <point x="201" y="-10" type="curve" smooth="yes"/>
      <point x="263" y="-10"/>
      <point x="314" y="28"/>
      <point x="362" y="63" type="curve"/>
      <point x="366" y="67"/>
      <point x="369" y="51"/>
      <point x="369" y="48" type="curve"/>
      <point x="371" y="9" type="line" smooth="yes"/>
      <point x="372" y="-10"/>
      <point x="384" y="-8"/>
      <point x="399" y="-5" type="curve" smooth="yes"/>
      <point x="433" y="2"/>
      <point x="483" y="18"/>
    </contour>
  </outline>
</glyph>
<glyph name="dotlessi" format="2">
  <advance width="266"/>
  <unicode hex="0131"/>
  <outline>
    <contour>
      <point x="246" y="13" type="curve"/>
      <point x="247" y="21"/>
      <point x="244" y="29"/>
      <point x="240" y="30" type="curve"/>
      <point x="229" y="30" type="line" smooth="yes"/>
      <point x="188" y="30"/>
      <point x="181" y="35"/>
      <point x="179" y="73" type="curve" smooth="yes"/>
      <point x="178" y="87"/>
      <point x="178" y="104"/>
      <point x="178" y="125" type="curve" smooth="yes"/>
      <point x="178" y="425" type="line" smooth="yes"/>
      <point x="178" y="440"/>
      <point x="172" y="444"/>
      <point x="158" y="439" type="curve" smooth="yes"/>
      <point x="31" y="395" type="line"/>
      <point x="25" y="391"/>
      <point x="25" y="372"/>
      <point x="32" y="370" type="curve"/>
      <point x="46" y="365"/>
      <point x="58" y="362"/>
      <point x="73" y="359" type="curve" smooth="yes"/>
      <point x="98" y="354"/>
      <point x="100" y="354"/>
      <point x="100" y="304" type="curve" smooth="yes"/>
      <point x="100" y="125" type="line" smooth="yes"/>
      <point x="100" y="40"/>
      <point x="99" y="30"/>
      <point x="40" y="30" type="curve" smooth="yes"/>
      <point x="27" y="30" type="line" smooth="yes"/>
      <point x="21" y="30"/>
      <point x="19" y="21"/>
      <point x="20" y="13" type="curve" smooth="yes"/>
      <point x="21" y="5"/>
      <point x="25" y="-3"/>
      <point x="29" y="-2" type="curve"/>
      <point x="96" y="-1"/>
      <point x="189" y="-1"/>
      <point x="240" y="-2" type="curve" smooth="yes"/>
      <point x="242" y="-2"/>
      <point x="246" y="6"/>
    </contour>
  </outline>
</glyph>
<glyph name="florin" format="2">
  <advance width="523"/>
  <unicode hex="0192"/>
  <outline>
    <contour>
      <point x="527" y="670" type="curve" smooth="yes"/>
      <point x="527" y="709"/>
      <point x="493" y="736"/>
      <point x="449" y="736" type="curve" smooth="yes"/>
      <point x="435" y="736"/>
      <point x="421" y="733"/>
      <point x="408" y="727" type="curve" smooth="yes"/>
      <point x="358" y="705"/>
      <point x="333" y="666"/>
      <point x="296" y="557" type="curve" smooth="yes"/>
      <point x="268" y="475"/>
      <point x="264" y="471"/>
      <point x="194" y="468" type="curve"/>
      <point x="188" y="467"/>
      <point x="181" y="466"/>
      <point x="178" y="459" type="curve"/>
      <point x="171" y="429" type="line"/>
      <point x="169" y="425"/>
      <point x="173" y="421"/>
      <point x="180" y="420" type="curve"/>
      <point x="248" y="420" type="line"/>
      <point x="256" y="419"/>
      <point x="259" y="415"/>
      <point x="257" y="406" type="curve" smooth="yes"/>
      <point x="204" y="186" type="line"/>
      <point x="159" y="-36" type="line" smooth="yes"/>
      <point x="138" y="-142"/>
      <point x="110" y="-188"/>
      <point x="80" y="-188" type="curve" smooth="yes"/>
      <point x="73" y="-188"/>
      <point x="72" y="-185"/>
      <point x="72" y="-184" type="curve" smooth="yes"/>
      <point x="72" y="-183"/>
      <point x="73" y="-180"/>
      <point x="75" y="-176" type="curve" smooth="yes"/>
      <point x="81" y="-165"/>
      <point x="83" y="-161"/>
      <point x="83" y="-154" type="curve" smooth="yes"/>
      <point x="83" y="-134"/>
      <point x="65" y="-118"/>
      <point x="45" y="-118" type="curve" smooth="yes"/>
      <point x="18" y="-118"/>
      <point x="-2" y="-142"/>
      <point x="-2" y="-170" type="curve" smooth="yes"/>
      <point x="-2" y="-206"/>
      <point x="29" y="-231"/>
      <point x="67" y="-231" type="curve" smooth="yes"/>
      <point x="151" y="-231"/>
      <point x="215" y="-140"/>
      <point x="261" y="26" type="curve" smooth="yes"/>
      <point x="278" y="89"/>
      <point x="297" y="156"/>
      <point x="314" y="227" type="curve" smooth="yes"/>
      <point x="338" y="325"/>
      <point x="343" y="345"/>
      <point x="354" y="409" type="curve" smooth="yes"/>
      <point x="355" y="414"/>
      <point x="361" y="420"/>
      <point x="366" y="420" type="curve" smooth="yes"/>
      <point x="432" y="420" type="line"/>
      <point x="439" y="421"/>
      <point x="448" y="421"/>
      <point x="450" y="429" type="curve" smooth="yes"/>
      <point x="457" y="458" type="line"/>
      <point x="457" y="464"/>
      <point x="450" y="466"/>
      <point x="443" y="466" type="curve" smooth="yes"/>
      <point x="377" y="466" type="line" smooth="yes"/>
      <point x="364" y="466"/>
      <point x="369" y="486"/>
      <point x="370" y="494" type="curve"/>
      <point x="389" y="598" type="line" smooth="yes"/>
      <point x="404" y="682"/>
      <point x="417" y="699"/>
      <point x="446" y="699" type="curve" smooth="yes"/>
      <point x="456" y="699"/>
      <point x="458" y="695"/>
      <point x="458" y="692" type="curve" smooth="yes"/>
      <point x="458" y="691"/>
      <point x="458" y="688"/>
      <point x="454" y="680" type="curve"/>
      <point x="450" y="674"/>
      <point x="448" y="666"/>
      <point x="448" y="660" type="curve" smooth="yes"/>
      <point x="448" y="640"/>
      <point x="467" y="625"/>
      <point x="486" y="625" type="curve" smooth="yes"/>
      <point x="510" y="625"/>
      <point x="527" y="645"/>
    </contour>
  </outline>
</glyph>
<glyph name="circumflex" format="2">
  <advance width="349"/>
  <unicode hex="02C6"/>
  <outline>
    <contour>
      <point x="315" y="486" type="curve"/>
      <point x="227" y="638" type="line" smooth="yes"/>
      <point x="222" y="646"/>
      <point x="220" y="647"/>
      <point x="210" y="648" type="curve" smooth="yes"/>
      <point x="197" y="649"/>
      <point x="142" y="648"/>
      <point x="135" y="647" type="curve"/>
      <point x="130" y="645"/>
      <point x="125" y="642"/>
      <point x="122" y="637" type="curve" smooth="yes"/>
      <point x="33" y="481" type="line"/>
      <point x="29" y="473"/>
      <point x="49" y="468"/>
      <point x="57" y="475" type="curve" smooth="yes"/>
      <point x="172" y="579" type="line"/>
      <point x="294" y="475" type="line"/>
      <point x="297" y="472"/>
      <point x="307" y="471"/>
      <point x="314" y="473" type="curve"/>
      <point x="320" y="474"/>
      <point x="317" y="481"/>
    </contour>
  </outline>
</glyph>
<glyph name="endash" format="2">
  <advance width="610"/>
  <unicode hex="2013"/>
  <outline>
    <contour>
      <point x="574" y="221" type="curve"/>
      <point x="574" y="258" type="line" smooth="yes"/>
      <point x="574" y="263"/>
      <point x="568" y="271"/>
      <point x="560" y="271" type="curve" smooth="yes"/>
      <point x="451" y="273"/>
      <point x="205" y="276"/>
      <point x="51" y="271" type="curve"/>
      <point x="46" y="270"/>
      <point x="40" y="265"/>
      <point x="39" y="260" type="curve"/>
      <point x="38" y="225" type="line"/>
      <point x="38" y="219"/>
      <point x="44" y="212"/>
      <point x="48" y="212" type="curve" smooth="yes"/>
      <point x="222" y="214"/>
      <point x="346" y="214"/>
      <point x="558" y="212" type="curve" smooth="yes"/>
      <point x="567" y="212"/>
      <point x="573" y="214"/>
    </contour>
  </outline>
</glyph>
<glyph name="fi" format="2">
  <advance width="556"/>
  <outline>
    <contour>
      <point x="521" y="25" type="curve" smooth="yes"/>
      <point x="500" y="28" type="line" smooth="yes"/>
      <point x="465" y="33"/>
      <point x="463" y="41"/>
      <point x="463" y="113" type="curve" smooth="yes"/>
      <point x="463" y="279" type="line" smooth="yes"/>
      <point x="463" y="320"/>
      <point x="465" y="368"/>
      <point x="467" y="404" type="curve"/>
      <point x="461" y="414"/>
      <point x="452" y="409"/>
      <point x="443" y="406" type="curve"/>
      <point x="415" y="400"/>
      <point x="363" y="398"/>
      <point x="326" y="397" type="curve" smooth="yes"/>
      <point x="300" y="396"/>
      <point x="240" y="396"/>
      <point x="208" y="397" type="curve" smooth="yes"/>
      <point x="180" y="398"/>
      <point x="182" y="413"/>
      <point x="182" y="436" type="curve" smooth="yes"/>
      <point x="182" y="590"/>
      <point x="217" y="675"/>
      <point x="294" y="675" type="curve" smooth="yes"/>
      <point x="319" y="675"/>
      <point x="357" y="658"/>
      <point x="386" y="609" type="curve" smooth="yes"/>
      <point x="391" y="601"/>
      <point x="399" y="594"/>
      <point x="413" y="594" type="curve" smooth="yes"/>
      <point x="428" y="594"/>
      <point x="455" y="605"/>
      <point x="455" y="636" type="curve" smooth="yes"/>
      <point x="455" y="679"/>
      <point x="398" y="715"/>
      <point x="330" y="715" type="curve" smooth="yes"/>
      <point x="218" y="715"/>
      <point x="157" y="631"/>
      <point x="136" y="580" type="curve" smooth="yes"/>
      <point x="113" y="526"/>
      <point x="105" y="469"/>
      <point x="105" y="412" type="curve" smooth="yes"/>
      <point x="105" y="403"/>
      <point x="99" y="396"/>
      <point x="91" y="392" type="curve" smooth="yes"/>
      <point x="73" y="382"/>
      <point x="54" y="380"/>
      <point x="48" y="374" type="curve"/>
      <point x="40" y="369"/>
      <point x="44" y="355"/>
      <point x="51" y="351" type="curve"/>
      <point x="85" y="348" type="line" smooth="yes"/>
      <point x="101" y="347"/>
      <point x="105" y="339"/>
      <point x="105" y="321" type="curve" smooth="yes"/>
      <point x="105" y="113" type="line" smooth="yes"/>
      <point x="105" y="41"/>
      <point x="104" y="33"/>
      <point x="69" y="28" type="curve" smooth="yes"/>
      <point x="46" y="25" type="line"/>
      <point x="38" y="21"/>
      <point x="37" y="11"/>
      <point x="40" y="4" type="curve" smooth="yes"/>
      <point x="43" y="-4"/>
      <point x="47" y="-4"/>
      <point x="55" y="-4" type="curve"/>
      <point x="83" y="-2"/>
      <point x="109" y="-1"/>
      <point x="142" y="-1" type="curve" smooth="yes"/>
      <point x="177" y="-1"/>
      <point x="207" y="-2"/>
      <point x="248" y="-4" type="curve"/>
      <point x="258" y="-1"/>
      <point x="262" y="24"/>
      <point x="250" y="25" type="curve" smooth="yes"/>
      <point x="218" y="28" type="line" smooth="yes"/>
      <point x="184" y="31"/>
      <point x="182" y="41"/>
      <point x="182" y="113" type="curve" smooth="yes"/>
      <point x="182" y="319" type="line" smooth="yes"/>
      <point x="182" y="343"/>
      <point x="187" y="348"/>
      <point x="203" y="349" type="curve" smooth="yes"/>
      <point x="232" y="350"/>
      <point x="309" y="350"/>
      <point x="338" y="349" type="curve" smooth="yes"/>
      <point x="380" y="348"/>
      <point x="387" y="347"/>
      <point x="387" y="286" type="curve" smooth="yes"/>
      <point x="387" y="113" type="line" smooth="yes"/>
      <point x="387" y="41"/>
      <point x="386" y="33"/>
      <point x="350" y="28" type="curve" smooth="yes"/>
      <point x="333" y="26"/>
      <point x="318" y="27"/>
      <point x="325" y="5" type="curve" smooth="yes"/>
      <point x="328" y="-5"/>
      <point x="333" y="-2"/>
      <point x="341" y="-2" type="curve"/>
      <point x="367" y="0"/>
      <point x="393" y="-2"/>
      <point x="425" y="-2" type="curve" smooth="yes"/>
      <point x="460" y="-2"/>
      <point x="490" y="-2"/>
      <point x="520" y="-4" type="curve"/>
      <point x="531" y="1"/>
      <point x="531" y="24"/>
    </contour>
  </outline>
</glyph>
